<?xml version="1.0" encoding="UTF-8" standalone="no"?>
<!-- Uploaded to: SVG Repo, www.svgrepo.com, Generator: SVG Repo Mixer Tools -->

<svg width="800"
     height="800"
     xmlns="http://www.w3.org/2000/svg" xml:space="preserve" aria-hidden="true" viewBox="0 0 14 14"><path fill="#f6d2a2" d="M2.245 8.798c.12.33.395.065.507-.087.106-.147.173-.076.125-.275-.031-.133-.059-.264-.105-.391a.95.95 0 0 0-.558.366c-.07.095-.167.364.031.388m7.724 1.949c.298.075.903.403.603.762-.252.458-.675-.186-1.02-.178.076-.237.19-.469.417-.584m.077-4.613c.09.34-.282.292-.46.237-.169-.055-.183.043-.256-.147-.05-.127-.103-.25-.137-.381a.93.93 0 0 1 .66-.042c.107.036.34.194.193.333"/>
    <path fill="#69d7e2"
          d="M7.914 2.346c.992-.784-.38-2.078-1.136-1.05-.817-.353-1.731-.161-2.656.149-.883.379-1.691.84-2.123 1.587C.824 2.709.415 4.568 1.68 4.577c.083 1.393.857 2.582 1.216 3.907.32 1.19.516 2.864 1.476 3.707.819.723 2.074.657 3.035.374 1.228-.362 2.602-1.163 2.81-2.578.202-1.348-.407-2.74-.87-3.965-.468-1.238-.734-2.565-1.432-3.676"/>
    <path d="M10.07 5.909a.55.55 0 0 0-.207-.14.97.97 0 0 0-.575.003 25 25 0 0 1-.232-.696l-.079-.253c-.253-.798-.372-1.145-.553-1.569a7 7 0 0 0-.464-.905c.223-.186.337-.407.336-.644a.83.83 0 0 0-.27-.594.86.86 0 0 0-.614-.235c-.239.012-.463.137-.642.373a2.4 2.4 0 0 0-.833-.183c-.523-.022-1.087.092-1.824.339l.01.032-.013-.031c-.767.329-1.31.651-1.717 1.057q-.246.243-.408.524c-.279-.072-.531-.027-.732.12-.186.134-.317.346-.362.58s.001.47.135.64c.133.17.347.267.624.278.024.354.092.715.206 1.1.11.376.22.669.487 1.325.198.49.286.715.38.992a1 1 0 0 0-.534.365.5.5 0 0 0-.088.238c-.013.104.029.18.125.201.062.152.169.195.293.139a.7.7 0 0 0 .263-.235.37.384.083 0 1 .053-.061l.022-.018s.017-.013.022-.019q.014-.008.021-.021c.042.155.08.318.165.69.096.42.15.65.223.901.262.938.692 1.69 1.18 2.118.153.135 2.421.422 2.951.266.686-.202 1.31-.508 1.797-.9q.194-.16.357-.332c.092.005.182.05.364.165.008.004.008.004.013.01.009.004.01.007.014.01.01.007.02.01.03.018.143.092.231.13.321.14.118.01.21-.046.284-.178.145-.178.1-.364-.083-.532a1.4 1.4 0 0 0-.494-.271c.11-.22.19-.466.23-.727.106-.724-.006-1.49-.305-2.422-.107-.33-.21-.615-.417-1.155l-.005-.016q.027.002.056.013a.74.74 0 0 0 .346.031c.133-.03.195-.13.159-.29.062-.078.052-.164-.017-.241M7.415.95c.204-.011.41.07.567.218a.76.76 0 0 1 .25.544c0 .212-.102.415-.309.584a5.36 5.548.083 0 0-.327-.457c.066-.111.078-.227-.039-.345-.116-.119-.247-.093-.362-.008a2.4 2.4 0 0 0-.36-.209c.164-.205.365-.316.58-.327M1.073 4.29c-.12-.154-.164-.369-.12-.584s.161-.413.337-.537a.8.8 0 0 1 .661-.114 2.167 2.243.083 0 0-.205.496c-.19-.033-.362.007-.4.217-.037.224.113.306.302.343a3 3 0 0 0-.003.435c-.257-.014-.451-.103-.572-.256m1.764 4.296c-.003 0-.02.014-.019.017q-.013.009-.024.022a.3.3 0 0 0-.061.07.65.65 0 0 1-.238.214c-.091.04-.158.017-.204-.097.059-.045.082-.07.095-.118l-.063-.022c-.01.032-.026.048-.076.087q-.003-.001-.006.005-.088-.018-.075-.13a.5.5 0 0 1 .078-.204.9.9 0 0 1 .503-.341c.026.08.054.16.075.24l.005.027c.012.046.018.066.022.09.02.097.017.112-.012.14m7.634 2.46c.15.135.19.273.097.408-.015-.016-.029-.037-.051-.065q0-.003-.006-.006a.6.6 0 0 0-.198-.191l-.03.06c.061.03.099.07.178.17q0 .003.005.005l.063.08c-.059.098-.127.135-.214.125-.075-.007-.157-.048-.293-.13l-.027-.02-.014-.01-.013-.01c-.16-.1-.252-.152-.34-.17q.213-.242.36-.515c.164.056.358.156.483.268m-.285-1.066c-.094.652-.447 1.208-1.011 1.663-.482.387-1.101.688-1.777.886-1.164.344-2.291.263-3.005-.365-.477-.418-.789-1.048-1.047-1.973a22 22 0 0 1-.223-.9c-.11-.473-.142-.61-.197-.82a8 8 0 0 0-.143-.465 17 17 0 0 0-.382-1.001c-.268-.657-.376-.947-.486-1.319a4.7 4.7 0 0 1-.21-1.389c.007-.73.26-1.306.734-1.785.399-.398.934-.714 1.694-1.041.73-.245 1.285-.356 1.801-.335.618.026 1.145.258 1.605.731.326.4.588.86.823 1.413.18.42.3.767.551 1.561l.08.253c.126.392.218.666.32.936l.153.4c.208.541.31.822.416 1.152.298.93.41 1.685.304 2.398m-.153-3.875q-.005-.002-.01 0c-.063-.001-.086-.008-.112-.024l-.038.056c.04.03.074.036.144.038.024.12-.016.18-.11.201a.66.66 0 0 1-.314-.027.5.5 0 0 0-.09-.02h-.01c-.068-.175-.082-.22-.118-.312l-.064-.172a.86.86 0 0 1 .53-.002.5.5 0 0 1 .179.119c.048.045.057.095.013.143"/>
    <g transform="matrix(.03148 -.01056 .0102 .03258 1.96 2.911)"><path fill="#fff" d="M2.291 38.749c9.164 35.66 66.241 26.496 64.05-9.264C63.75-13.348-6.475-5.08 2.29 38.749"/>
        <path d="M67.337 29.385c-.598-10.36-5.18-18.428-12.75-23.508C47.813 1.295 38.848-.498 29.983.597 21.118 1.794 12.949 5.778 7.57 12.054 1.594 19.026-.697 28.19 1.395 38.749l.896-.2-.896.2c9.363 36.656 68.133 27.791 65.942-9.364M3.187 38.55c-1.992-10.06.2-18.627 5.778-25.102 5.08-5.877 12.75-9.761 21.217-10.857s16.934.598 23.31 4.98c7.071 4.782 11.355 12.253 11.952 22.114 2.092 34.764-53.391 43.132-62.256 8.865"/>
        <ellipse cx="18.03" cy="32.872" rx="9.662" ry="10.459"/>
        <ellipse cx="22.412" cy="35.262" fill="#fff" rx="2.291" ry="2.689"/></g>
    <g transform="matrix(.03148 -.01056 .0102 .03258 4.475 1.928)"><path fill="#fff" d="M1.195 35.96C8.268 76.9 75.206 66.042 65.544 24.803 56.878-12.252-1.196-1.992 1.195 35.96"/>
        <path d="M66.44 24.604C57.575-13.547-2.19-3.088.2 36.059v.1c3.286 19.324 20.52 29.186 39.545 25.998C48.41 60.663 56.18 56.48 61.26 50.304c5.578-6.874 7.57-15.739 5.18-25.7m-6.673 24.504c-4.782 5.778-12.053 9.762-20.321 11.157-18.03 2.988-34.167-6.276-37.354-24.405C-.1-.996 56.28-10.858 64.647 25.002c2.192 9.463.399 17.731-4.88 24.106"/>
        <ellipse cx="17.631" cy="34.167" rx="9.463" ry="10.459"/>
        <ellipse cx="22.014" cy="36.557" fill="#fff" rx="2.191" ry="2.689"/></g>
    <path d="M13.125 4.579H4.612v8.546h8.513z"/>
    <path fill="#fff"
          d="M7.558 8.296h-.635V6.21h.635v-.56H5.676v.558h.634v2.087h-.634v.558h1.882zM8.809 5.65V7.8q0 .14-.06.248c-.06.108-.095.129-.168.17s-.155.059-.247.059h-.457v.577h.536q.29 0 .522-.13c.232-.13.276-.208.363-.362s.132-.326.132-.519V5.65zm-3.133 6.41h3.405v-.641H5.676Zm.058-7.399c.055.164.143.336.17.52-.018.1-.096.137-.158.193a.3.3 0 0 1-.283-.106c-.087-.19-.114-.388-.167-.59a.7.7 0 0 1 .237-.04c.1 0 .2.02.201.023m-.899.293c.02.374.415.884.606.31-.086-.185-.116-.4-.167-.594-.002-.018-.443.26-.439.284"/>
    <path fill="#231f20"
          d="M5.82 4.801c-.037-.095-.053-.133-.068-.182l-.007-.023-.024.001-.435.006h.023-.035l-.027.002-.024.014-.392.255-.015.009-.001.018a.8.8 0 0 0 .22.58c.156.147.32.096.422-.167a.338.35.083 0 0 .29.096l.01-.003.007-.007c.011-.01.023-.018.041-.035q.004 0 .006-.005c.08-.063.11-.102.122-.174l.002-.004-.002-.007a1 1 0 0 0-.046-.192 3 3 0 0 0-.068-.182m-.539.048a2 2 0 0 0 .124.417c-.087.245-.203.284-.327.164a.73.73 0 0 1-.197-.508l.363-.236zm.59.333c-.01.047-.032.075-.1.127q-.003-.001-.005.005l-.036.03a.27.27 0 0 1-.24-.092 2 2 0 0 1-.096-.297c-.007-.034-.014-.056-.026-.117a2 2 0 0 0-.042-.165l.376-.008c.013.042.028.08.06.162.035.086.052.13.068.182q.03.092.04.173"/>
    <path fill="#f6d2a2"
          d="M4.607 4.22c-.24.106-.346.475-.143.672.27.261.54-.213.785-.26.275-.085.59.133.728-.187.156-.353-.272-.504-.581-.529Z"/>
    <path fill="#231f20"
          d="M5.883 4.032a1 1 0 0 0-.48-.147l-.007-.001-.006.002-.793.301c-.27.12-.367.522-.153.73.084.079.171.103.27.077a.7.7 0 0 0 .247-.143l.033-.026c.14-.108.198-.145.263-.156l.003-.001c.076-.025.146-.024.28-.015.149.011.195.014.263-.002a.3.3 0 0 0 .208-.188c.078-.18.025-.328-.128-.43m.066.4c-.038.088-.09.131-.163.152-.058.016-.1.012-.242.002a.7.7 0 0 0-.3.015c-.082.016-.143.055-.29.169q-.022.018-.034.025c-.204.158-.316.189-.436.071-.179-.173-.096-.516.133-.618L5.4 3.95c.17.015.335.064.445.138.13.085.17.201.104.345"/>
    <path d="M5.426 3.791c-.213-.337-1.011-.009-.854.426.143.315 1.063-.09.854-.426"/></svg>